<svg xmlns="http://www.w3.org/2000/svg" viewBox="0 0 204.95 33.66"><defs><style>.cls-1{fill:#129805;}.cls-2{fill:#f06906;}.cls-3{fill:#385067;}.cls-4{fill:#333434;}.cls-5{fill:#fdfbfb;}</style></defs><title>logo_online</title><g id="Layer_2" data-name="Layer 2"><g id="Layer_1-2" data-name="Layer 1"><path class="cls-1" d="M6.41,6.08s-2.29,1.31-1,5.56,6.22,3.61,9,3.11S21,4.11,14.1,3.46C16.4,3.29,7.72.35,7.72.35A9.76,9.76,0,0,1,12.14.18,13.57,13.57,0,0,1,17.05,2c3.27,2.13,5.07,5.43,4.26,10.15s-6.22,9.17-11.95,7.7S1,11.15,2.81,8.7,6.41,6.08,6.41,6.08Z"/><path class="cls-2" d="M12.79,20s-6.22,1.15-10-2.94a10,10,0,0,1-2-11A10.26,10.26,0,0,1,10.34,0a9.23,9.23,0,0,1,9.17,7.69c.59,4.76-2.3,6.72-3.44,7.21a5.18,5.18,0,0,1-4.1-.33s2.95-1.64,2.79-4.42c-.14-2.31-.89-4.13-3.44-4.91C9.19,4.6,5.43,4.93,4.61,9.19a9.2,9.2,0,0,0,2.78,7.86A12.89,12.89,0,0,0,12.79,20Z"/><path class="cls-3" d="M24.11,8h3V9.17A7.74,7.74,0,0,1,29,8.06a5.18,5.18,0,0,1,1.73-.31A4.41,4.41,0,0,1,33.82,8.9a3.71,3.71,0,0,1,1.06,2.88v7.3h-3V14.25a11.07,11.07,0,0,0-.2-2.63,1.78,1.78,0,0,0-.68-1,2,2,0,0,0-1.19-.34,2.39,2.39,0,0,0-1.59.56,3,3,0,0,0-.92,1.56,11.2,11.2,0,0,0-.14,2.24v4.43h-3Z"/><path class="cls-3" d="M37.5,3.77h3V19.08h-3Z"/><path class="cls-3" d="M44.5,3.49A1.93,1.93,0,0,1,45.88,4a1.71,1.71,0,0,1,0,2.54,2,2,0,0,1-1.36.52,2,2,0,0,1-1.39-.53,1.72,1.72,0,0,1-.57-1.29A1.64,1.64,0,0,1,43.13,4,2,2,0,0,1,44.5,3.49ZM43,8H46v11H43Z"/><path class="cls-3" d="M48.8,8h3.05V9.17a7.56,7.56,0,0,1,1.88-1.11,5.07,5.07,0,0,1,1.72-.31A4.43,4.43,0,0,1,58.52,8.9a3.74,3.74,0,0,1,1.06,2.88v7.3h-3V14.25a11.25,11.25,0,0,0-.19-2.63,1.83,1.83,0,0,0-.68-1,2,2,0,0,0-1.2-.34,2.39,2.39,0,0,0-1.59.56A3,3,0,0,0,52,12.41a11.48,11.48,0,0,0-.13,2.24v4.43H48.8Z"/><path class="cls-3" d="M74.7,14.36H64.9A2.9,2.9,0,0,0,66,16.24a3.79,3.79,0,0,0,2.35.69,4.23,4.23,0,0,0,2.93-1.09l2.57,1.1a5.78,5.78,0,0,1-2.3,1.83,7.71,7.71,0,0,1-3.18.6,6.66,6.66,0,0,1-4.66-1.64A5.33,5.33,0,0,1,62,13.62a5.51,5.51,0,0,1,1.8-4.2,6.34,6.34,0,0,1,4.49-1.67,6.6,6.6,0,0,1,4.67,1.67,5.75,5.75,0,0,1,1.8,4.41Zm-3-2.18a2.77,2.77,0,0,0-1.19-1.5,3.69,3.69,0,0,0-2.07-.58,3.83,3.83,0,0,0-2.23.65A3.58,3.58,0,0,0,65,12.18Z"/><path class="cls-3" d="M78.9,4.15H82V16.37h4.55v2.71H78.9Z"/><path class="cls-3" d="M100.8,14.36H91a2.89,2.89,0,0,0,1.13,1.88,3.81,3.81,0,0,0,2.35.69,4.27,4.27,0,0,0,2.94-1.09l2.57,1.1a5.81,5.81,0,0,1-2.31,1.83,7.71,7.71,0,0,1-3.18.6,6.63,6.63,0,0,1-4.65-1.64,5.33,5.33,0,0,1-1.8-4.11,5.5,5.5,0,0,1,1.79-4.2,6.34,6.34,0,0,1,4.49-1.67A6.6,6.6,0,0,1,99,9.42a5.75,5.75,0,0,1,1.8,4.41Zm-3-2.18a2.77,2.77,0,0,0-1.19-1.5,3.65,3.65,0,0,0-2.06-.58,3.86,3.86,0,0,0-2.24.65,3.67,3.67,0,0,0-1.12,1.43Z"/><path class="cls-3" d="M112.25,8h3V17.5A5.83,5.83,0,0,1,114,21.62a6.52,6.52,0,0,1-5,1.79,9.57,9.57,0,0,1-3-.41A5.5,5.5,0,0,1,104,21.81a4.83,4.83,0,0,1-1.24-1.91h3.36a2.83,2.83,0,0,0,1.15.7,5.21,5.21,0,0,0,1.67.24,4.7,4.7,0,0,0,2-.35,2.22,2.22,0,0,0,1.06-.89,4.19,4.19,0,0,0,.31-1.89,5,5,0,0,1-1.69,1.05,5.67,5.67,0,0,1-2,.32,5.75,5.75,0,0,1-4.13-1.6,5.34,5.34,0,0,1-1.69-4.06,5.4,5.4,0,0,1,1.79-4.23,5.62,5.62,0,0,1,3.86-1.44,5.75,5.75,0,0,1,2,.35,6.49,6.49,0,0,1,1.87,1.16Zm-3.16,2.3a3.32,3.32,0,0,0-2.38.88,2.89,2.89,0,0,0-.94,2.21,2.93,2.93,0,0,0,1,2.26,3.42,3.42,0,0,0,2.41.89,3.26,3.26,0,0,0,2.34-.87,2.93,2.93,0,0,0,.92-2.26,3,3,0,0,0-.92-2.25A3.4,3.4,0,0,0,109.09,10.34Z"/><path class="cls-3" d="M127.33,8h3v11h-3V17.92A6.11,6.11,0,0,1,125.54,19a5.53,5.53,0,0,1-1.94.34,5.67,5.67,0,0,1-4.07-1.66,5.49,5.49,0,0,1-1.72-4.13,5.6,5.6,0,0,1,1.66-4.19,5.77,5.77,0,0,1,6.09-1.26,5.43,5.43,0,0,1,1.77,1.13Zm-3.2,2.27a3.22,3.22,0,0,0-2.35.91,3.12,3.12,0,0,0-.93,2.33,3.14,3.14,0,0,0,1,2.36,3.24,3.24,0,0,0,2.34.92,3.27,3.27,0,0,0,2.38-.91,3.16,3.16,0,0,0,1-2.38,3.09,3.09,0,0,0-1-2.34A3.37,3.37,0,0,0,124.13,10.31Z"/><path class="cls-3" d="M133.13,3.77h3.05V19.08h-3.05Z"/><path class="cls-3" d="M141.46,4.15h3.11V19.08h-3.11Z"/><path class="cls-3" d="M147.75,8h3.05V9.17a7.38,7.38,0,0,1,1.88-1.11,5.07,5.07,0,0,1,1.72-.31,4.43,4.43,0,0,1,3.07,1.15,3.74,3.74,0,0,1,1.06,2.88v7.3h-3V14.25a11.07,11.07,0,0,0-.2-2.63,1.78,1.78,0,0,0-.68-1,2,2,0,0,0-1.19-.34,2.39,2.39,0,0,0-1.59.56,3,3,0,0,0-.92,1.56,11.48,11.48,0,0,0-.13,2.24v4.43h-3.05Z"/><path class="cls-3" d="M170.44,3.77h3.05V19.08h-3.05V17.92A6.11,6.11,0,0,1,168.65,19a5.62,5.62,0,0,1-2,.34,5.71,5.71,0,0,1-4.07-1.66,5.52,5.52,0,0,1-1.71-4.13,5.6,5.6,0,0,1,1.66-4.19,5.55,5.55,0,0,1,4-1.64,5.61,5.61,0,0,1,2,.38,5.43,5.43,0,0,1,1.77,1.13Zm-3.2,6.54a3.2,3.2,0,0,0-2.35.91,3.09,3.09,0,0,0-.94,2.33,3.18,3.18,0,0,0,1,2.36,3.51,3.51,0,0,0,4.73,0,3.16,3.16,0,0,0,1-2.38,3.09,3.09,0,0,0-1-2.34A3.37,3.37,0,0,0,167.24,10.31Z"/><path class="cls-3" d="M177.76,3.49a1.94,1.94,0,0,1,1.38.53,1.7,1.7,0,0,1,0,2.54,1.93,1.93,0,0,1-1.36.52,2,2,0,0,1-1.38-.53,1.73,1.73,0,0,1-.58-1.29A1.62,1.62,0,0,1,176.39,4,2,2,0,0,1,177.76,3.49ZM176.24,8h3v11h-3Z"/><path class="cls-3" d="M191,8h3v11h-3V17.92A6.11,6.11,0,0,1,189.23,19a5.57,5.57,0,0,1-1.94.34,5.67,5.67,0,0,1-4.07-1.66,5.49,5.49,0,0,1-1.72-4.13,5.6,5.6,0,0,1,1.66-4.19,5.77,5.77,0,0,1,6.09-1.26A5.43,5.43,0,0,1,191,9.26Zm-3.2,2.27a3.22,3.22,0,0,0-2.35.91,3.12,3.12,0,0,0-.93,2.33,3.14,3.14,0,0,0,1,2.36,3.24,3.24,0,0,0,2.34.92,3.27,3.27,0,0,0,2.38-.91,3.16,3.16,0,0,0,.95-2.38,3.09,3.09,0,0,0-.95-2.34A3.37,3.37,0,0,0,187.82,10.31Z"/><path class="cls-4" d="M69.33,27.89H67.75V32H66.5V27.89H64.93V27h4.4Z"/><path class="cls-4" d="M73.75,32H72.54V30c0-.53-.22-.79-.64-.79a.66.66,0,0,0-.52.22.79.79,0,0,0-.2.56V32H70V26.68h1.22v2.26h0a1.44,1.44,0,0,1,1.22-.62c.89,0,1.34.49,1.34,1.47Z"/><path class="cls-4" d="M78.27,30.52H75.69c0,.52.4.78,1.09.78A2.24,2.24,0,0,0,77.92,31v.8a3.21,3.21,0,0,1-1.42.27A2.14,2.14,0,0,1,75,31.61a1.74,1.74,0,0,1-.53-1.35,1.83,1.83,0,0,1,.57-1.42,2,2,0,0,1,1.41-.52,1.84,1.84,0,0,1,1.34.47,1.71,1.71,0,0,1,.47,1.26Zm-1.13-.68c0-.51-.23-.77-.69-.77a.7.7,0,0,0-.51.22,1,1,0,0,0-.26.55Z"/><path class="cls-4" d="M82.55,30.27V32H81.3V27h2c1.4,0,2.1.53,2.1,1.6a1.48,1.48,0,0,1-.6,1.23,2.57,2.57,0,0,1-1.61.47Zm0-2.43v1.57H83c.66,0,1-.27,1-.8s-.33-.77-1-.77Z"/><path class="cls-4" d="M87.92,32.09a2.29,2.29,0,0,1-1.55-.5,1.94,1.94,0,0,1,0-2.77,2.38,2.38,0,0,1,1.59-.5,2.23,2.23,0,0,1,1.54.5,1.7,1.7,0,0,1,.56,1.34,1.82,1.82,0,0,1-.57,1.41A2.29,2.29,0,0,1,87.92,32.09Zm0-2.92a.87.87,0,0,0-.68.27,1.13,1.13,0,0,0-.24.77c0,.69.31,1,.92,1s.88-.35.88-1.06S88.55,29.17,88,29.17Z"/><path class="cls-4" d="M96.6,28.41,95.46,32H94.18l-.58-2.1a2.21,2.21,0,0,1-.07-.46h0a2.05,2.05,0,0,1-.08.44L92.81,32H91.54l-1.12-3.59h1.25l.54,2.34a2.12,2.12,0,0,1,.06.4h0a3.14,3.14,0,0,1,.07-.41L93,28.41H94.2l.62,2.34c0,.06,0,.2.05.41h0a2.9,2.9,0,0,1,.06-.41l.51-2.34Z"/><path class="cls-4" d="M100.74,30.52H98.16q.06.78,1.08.78a2.25,2.25,0,0,0,1.15-.28v.8a3.26,3.26,0,0,1-1.43.27,2.13,2.13,0,0,1-1.48-.48A1.71,1.71,0,0,1,97,30.26a1.83,1.83,0,0,1,.57-1.42,2,2,0,0,1,1.41-.52,1.81,1.81,0,0,1,1.33.47,1.67,1.67,0,0,1,.48,1.26Zm-1.14-.68c0-.51-.22-.77-.68-.77a.67.67,0,0,0-.51.22,1,1,0,0,0-.26.55Z"/><path class="cls-4" d="M104,29.41a1.16,1.16,0,0,0-.51-.11.78.78,0,0,0-.62.26,1.1,1.1,0,0,0-.23.73V32h-1.22V28.41h1.22v.66h0a1,1,0,0,1,1-.73.78.78,0,0,1,.3.05Z"/><path class="cls-4" d="M109.25,32.09a2.72,2.72,0,0,1-1.94-.7,2.43,2.43,0,0,1-.74-1.84,2.56,2.56,0,0,1,.76-1.93,2.77,2.77,0,0,1,2-.74,2.66,2.66,0,0,1,1.92.71,2.46,2.46,0,0,1,.73,1.86,2.5,2.5,0,0,1-.76,1.91A2.7,2.7,0,0,1,109.25,32.09Zm.06-4.23a1.32,1.32,0,0,0-1,.45,2,2,0,0,0,0,2.37,1.44,1.44,0,0,0,2,0,1.72,1.72,0,0,0,.38-1.18,1.79,1.79,0,0,0-.37-1.21A1.21,1.21,0,0,0,109.31,27.86Z"/><path class="cls-4" d="M115.37,27.53a1.26,1.26,0,0,0-.45-.08.51.51,0,0,0-.59.57v.39h.91v.82h-.91V32h-1.21V29.23h-.67v-.82h.67V28a1.22,1.22,0,0,1,.44-1,1.77,1.77,0,0,1,1.19-.37,2.16,2.16,0,0,1,.62.07Z"/><path class="cls-4" d="M119.37,30.27V32h-1.24V27h2c1.4,0,2.09.53,2.09,1.6a1.48,1.48,0,0,1-.6,1.23,2.54,2.54,0,0,1-1.6.47Zm0-2.43v1.57h.49c.67,0,1-.27,1-.8s-.33-.77-1-.77Z"/><path class="cls-4" d="M126.42,30.52h-2.58q.06.78,1.08.78a2.25,2.25,0,0,0,1.15-.28v.8a3.21,3.21,0,0,1-1.42.27,2.14,2.14,0,0,1-1.49-.48,1.74,1.74,0,0,1-.53-1.35,1.83,1.83,0,0,1,.57-1.42,2,2,0,0,1,1.41-.52,1.85,1.85,0,0,1,1.34.47,1.71,1.71,0,0,1,.47,1.26Zm-1.13-.68c0-.51-.23-.77-.69-.77a.67.67,0,0,0-.51.22,1,1,0,0,0-.26.55Z"/><path class="cls-4" d="M129,32.09a2.26,2.26,0,0,1-1.55-.5,1.94,1.94,0,0,1,0-2.77,2.37,2.37,0,0,1,1.58-.5,2.26,2.26,0,0,1,1.55.5,1.73,1.73,0,0,1,.56,1.34,1.8,1.8,0,0,1-.58,1.41A2.25,2.25,0,0,1,129,32.09Zm0-2.92a.85.85,0,0,0-.67.27,1.13,1.13,0,0,0-.24.77c0,.69.31,1,.92,1s.88-.35.88-1.06S129.65,29.17,129.06,29.17Z"/><path class="cls-4" d="M133.22,31.59h0v2.07H132V28.41h1.22V29h0a1.47,1.47,0,0,1,1.27-.63,1.5,1.5,0,0,1,1.19.48,2,2,0,0,1,.41,1.3,2.13,2.13,0,0,1-.48,1.45,1.68,1.68,0,0,1-1.3.54A1.28,1.28,0,0,1,133.22,31.59Zm0-1.48v.29a.85.85,0,0,0,.22.61.75.75,0,0,0,.57.23.78.78,0,0,0,.64-.29,1.28,1.28,0,0,0,.23-.83c0-.63-.27-.95-.81-.95a.8.8,0,0,0-.61.26A1,1,0,0,0,133.18,30.11Z"/><path class="cls-4" d="M138.11,32h-1.22V26.68h1.22Z"/><path class="cls-4" d="M142.69,30.52h-2.58q.06.78,1.08.78a2.25,2.25,0,0,0,1.15-.28v.8a3.24,3.24,0,0,1-1.42.27,2.14,2.14,0,0,1-1.49-.48,1.74,1.74,0,0,1-.53-1.35,1.83,1.83,0,0,1,.57-1.42,2,2,0,0,1,1.41-.52,1.81,1.81,0,0,1,1.33.47,1.67,1.67,0,0,1,.48,1.26Zm-1.13-.68c0-.51-.23-.77-.69-.77a.67.67,0,0,0-.51.22,1,1,0,0,0-.26.55Z"/><rect class="cls-3" x="175.07" y="20.94" width="19" height="6.6"/><path class="cls-5" d="M176.08,26a.59.59,0,0,1,.59-.63.63.63,0,1,1-.59.63Z"/><path class="cls-5" d="M181.08,26.38a3,3,0,0,1-1.12.22,2,2,0,0,1-2.08-2.22,2.17,2.17,0,0,1,2.25-2.32,2.24,2.24,0,0,1,1,.2l-.18.7a1.7,1.7,0,0,0-.78-.17,1.37,1.37,0,0,0-1.33,1.55,1.35,1.35,0,0,0,1.32,1.52,1.93,1.93,0,0,0,.82-.17Z"/><path class="cls-5" d="M185.66,24.3a2.05,2.05,0,0,1-2,2.3,2,2,0,0,1-2-2.24,2.06,2.06,0,0,1,2.05-2.3A2,2,0,0,1,185.66,24.3Zm-2-1.55c-.78,0-1.08.84-1.08,1.59s.4,1.57,1.07,1.57,1.08-.72,1.08-1.59C184.72,23.6,184.42,22.75,183.65,22.75Z"/><path class="cls-5" d="M192.55,26.51h-.9V24c0-.73-.24-1.21-.79-1.21a.93.93,0,0,0-.85,1v2.69h-.9V23.89c0-.61-.23-1.08-.76-1.08a1,1,0,0,0-.88,1.06v2.64h-.9V23.38c0-.49,0-.86,0-1.23h.79l0,.64h0a1.44,1.44,0,0,1,1.28-.73,1.18,1.18,0,0,1,1.15.8h0a1.49,1.49,0,0,1,1.34-.8c.65,0,1.36.44,1.36,1.82Z"/><path class="cls-3" d="M198.24,1.38a1.15,1.15,0,0,1,0,.19.21.21,0,0,1,0,.12.1.1,0,0,1,0,.06.09.09,0,0,1-.06,0h-1.31V5.6a.09.09,0,0,1,0,.07l-.08,0-.17,0H196l-.16,0-.09,0a.09.09,0,0,1,0-.07V1.78H194.4a.09.09,0,0,1-.06,0,.1.1,0,0,1-.05-.06.21.21,0,0,1,0-.12,1.15,1.15,0,0,1,0-.19,1,1,0,0,1,0-.18.25.25,0,0,1,0-.13.1.1,0,0,1,.05-.06.07.07,0,0,1,.06,0h3.69a.07.07,0,0,1,.06,0,.1.1,0,0,1,0,.06.25.25,0,0,1,0,.13A1,1,0,0,1,198.24,1.38Z"/><path class="cls-3" d="M205,5.6a.09.09,0,0,1,0,.07s0,0-.08,0l-.15,0h-.49l-.15,0s-.07,0-.08,0a.09.09,0,0,1,0-.07V1.74h0L202.42,5.6a.22.22,0,0,1,0,.08l-.1.05-.16,0h-.47l-.16,0-.1,0a.18.18,0,0,1,0-.07l-1.46-3.86h0V5.6a.09.09,0,0,1,0,.07s0,0-.08,0l-.16,0h-.48l-.16,0-.08,0a.14.14,0,0,1,0-.07V1.37a.36.36,0,0,1,.11-.28.39.39,0,0,1,.29-.1H200l.32,0a.54.54,0,0,1,.23.1.44.44,0,0,1,.16.17,1.17,1.17,0,0,1,.12.25l1.13,2.83h0l1.17-2.82a2.17,2.17,0,0,1,.12-.26.61.61,0,0,1,.14-.17.47.47,0,0,1,.2-.1l.26,0h.72l.18,0a.32.32,0,0,1,.13.08.25.25,0,0,1,.08.12.41.41,0,0,1,0,.16Z"/><rect class="cls-4" x="144.68" y="29.98" width="49.4" height="0.7"/><rect class="cls-4" x="5.42" y="29.98" width="58.4" height="0.7"/></g></g></svg>